<?xml version="1.0" encoding="UTF-8"?>
<svg id="_레이어_1" data-name="레이어 1" xmlns="http://www.w3.org/2000/svg" viewBox="0 0 25 25">
  <defs>
    <style>
      .cls-1 {
        fill: none;
      }

      .cls-2 {
        fill: #2563eb;
      }
    </style>
  </defs>
  <rect class="cls-1" width="25" height="25" rx="5" ry="5"/>
  <g>
    <path class="cls-2" d="M8.72,21.15h7.56c1.24,0,2.26-1.01,2.26-2.26V7.14h1.66v-1.11h-4.71v-.73c0-.8-.65-1.46-1.46-1.46h-3.06c-.8,0-1.46.65-1.46,1.46v.73h-4.71v1.11h1.66v11.76c0,1.24,1.01,2.26,2.26,2.26ZM10.62,5.3c0-.19.16-.35.35-.35h3.06c.19,0,.35.16.35.35v.73h-3.76v-.73ZM10.07,7.14h7.36v11.76c0,.63-.51,1.15-1.15,1.15h-7.56c-.63,0-1.15-.51-1.15-1.15V7.14h2.49Z"/>
    <path class="cls-2" d="M10.82,17.82c.31,0,.55-.25.55-.55v-7.77c0-.31-.25-.55-.55-.55s-.55.25-.55.55v7.77c0,.31.25.55.55.55Z"/>
    <path class="cls-2" d="M14.18,17.82c.31,0,.55-.25.55-.55v-7.77c0-.31-.25-.55-.55-.55s-.55.25-.55.55v7.77c0,.31.25.55.55.55Z"/>
  </g>
</svg>