<?xml version="1.0" encoding="UTF-8"?>
<svg id="_레이어_1" data-name="레이어 1" xmlns="http://www.w3.org/2000/svg" viewBox="0 0 25 25">
  <defs>
    <style>
      .cls-1 {
        fill: none;
      }

      .cls-2, .cls-3 {
        fill: #2563eb;
      }

      .cls-3 {
        stroke: #2563eb;
        stroke-miterlimit: 10;
        stroke-width: .5px;
      }
    </style>
  </defs>
  <rect class="cls-1" width="25" height="25" rx="5" ry="5"/>
  <path class="cls-2" d="M19.55,7.59h-8.06l-1.17-1.85c-.28-.45-.77-.72-1.3-.72h-4.08c-.85,0-1.54.69-1.54,1.54v11.35c0,1.14.93,2.07,2.07,2.07h14.09c1.14,0,2.07-.93,2.07-2.07v-8.26c0-1.14-.93-2.07-2.07-2.07ZM4.93,6.17h4.08c.13,0,.26.07.33.18l.78,1.23h-5.58v-1.03c0-.21.17-.39.39-.39ZM20.46,17.92c0,.5-.41.91-.91.91H5.45c-.5,0-.91-.41-.91-.91v-9.18h15.01c.5,0,.91.41.91.91v8.26Z"/>
  <g>
    <path class="cls-3" d="M12.5,16.61c-.13,0-.23-.1-.23-.23v-5.54c0-.13.1-.23.23-.23s.23.1.23.23v5.54c0,.13-.1.23-.23.23Z"/>
    <path class="cls-3" d="M12.5,16.96h0c-.07,0-.15-.04-.19-.1l-1.72-2.41c-.07-.1-.05-.25.05-.32.1-.07.25-.05.32.05l1.53,2.14,1.53-2.14c.07-.1.22-.13.32-.05.1.07.13.22.05.32l-1.72,2.41c-.04.06-.11.1-.19.1Z"/>
  </g>
</svg>