<?xml version="1.0" encoding="UTF-8"?>
<svg id="_레이어_1" data-name="레이어 1" xmlns="http://www.w3.org/2000/svg" viewBox="0 0 25 25">
  <defs>
    <style>
      .cls-1 {
        fill: none;
      }

      .cls-2 {
        fill: #2563eb;
      }
    </style>
  </defs>
  <rect class="cls-1" width="25" height="25" rx="5" ry="5"/>
  <path class="cls-2" d="M16.42,4.23c-.22-.22-.58-.22-.8,0L5.58,14.27s0,0,0,0c-.03.03-.06.07-.08.11,0,.01-.01.02-.02.03-.02.03-.03.07-.04.1,0,0,0,.01,0,.02l-1.3,5.16c-.09.35.01.7.26.95.19.19.44.29.7.29.08,0,.17-.01.25-.03l5.15-1.31s.01,0,.02,0c.03-.01.07-.02.1-.04.01,0,.02-.01.03-.02.04-.02.08-.05.11-.08,0,0,0,0,0,0,0,0,0,0,0,0l9.97-10.11c.22-.22.22-.58,0-.8l-4.31-4.31ZM5.29,19.75l1-3.97,2.97,2.97-3.97,1ZM10.36,18.24l-3.57-3.57,9.24-9.24,3.51,3.51-9.18,9.3Z"/>
</svg>