<?xml version="1.0" encoding="UTF-8"?>
<svg id="_레이어_1" data-name="레이어 1" xmlns="http://www.w3.org/2000/svg" viewBox="0 0 25 25">
  <defs>
    <style>
      .cls-1 {
        fill: #fff;
      }

      .cls-2 {
        fill: #2563eb;
      }
    </style>
  </defs>
  <rect class="cls-1" width="25" height="25" rx="5" ry="5"/>
  <path class="cls-2" d="M6.85,18.42h3.08c.27,1.17,1.32,2.04,2.57,2.04s2.3-.87,2.57-2.04h3.08c.51,0,.97-.29,1.2-.75.22-.46.16-1-.16-1.4l-.97-1.23s-.03-.05-.03-.07v-4.62c0-3.13-2.49-5.73-5.55-5.81-1.55-.04-3.02.53-4.13,1.61-1.11,1.08-1.72,2.53-1.72,4.08v4.74s0,.05-.03.07l-.97,1.23c-.32.4-.38.94-.16,1.4.22.46.68.75,1.2.75ZM12.5,19.37c-.64,0-1.19-.39-1.43-.95h2.85c-.24.56-.79.95-1.43.95ZM6.66,16.95l.97-1.23c.17-.21.26-.48.26-.75v-4.74c0-1.25.49-2.42,1.39-3.3.87-.85,2-1.31,3.21-1.31.04,0,.08,0,.12,0,2.47.06,4.48,2.18,4.48,4.72v4.62c0,.27.09.54.26.75l.97,1.23c.08.1.05.2.03.25-.02.05-.08.13-.21.13H6.85c-.13,0-.19-.08-.21-.13-.02-.05-.05-.15.03-.25Z"/>
</svg>