<?xml version="1.0" encoding="UTF-8"?>
<svg id="_레이어_1" data-name="레이어_1" xmlns="http://www.w3.org/2000/svg" version="1.1" viewBox="0 0 25 25">
  <!-- Generator: Adobe Illustrator 29.8.4, SVG Export Plug-In . SVG Version: 2.1.1 Build 6)  -->
  <defs>
    <style>
      .st0 {
        fill: none;
      }

      .st1 {
        fill: #2563eb;
      }
    </style>
  </defs>
  <rect class="st0" width="25" height="25" rx="5" ry="5"/>
  <rect class="st0" width="25" height="25" rx="5" ry="5"/>
  <g>
    <path class="st1" d="M7.8,14.2c-.2,0-.3,0-.4-.2l-1.7-1.6-1.7,1.6c-.3.2-.7.2-.9,0-.2-.3-.2-.7,0-.9l2.2-1.9c.3-.2.6-.2.9,0l2.2,1.9c.3.2.3.7,0,.9-.1.1-.3.2-.5.2h0Z"/>
    <path class="st1" d="M12.5,20.1c-2,0-3.9-.8-5.4-2.2-1.4-1.4-2.2-3.3-2.2-5.4,0-.4.3-.7.7-.7h0c.4,0,.7.3.7.7,0,1.7.6,3.2,1.8,4.4s2.8,1.8,4.4,1.8,4.1-1.1,5.3-2.9c.2-.3.6-.4.9-.2.3.2.4.6.2.9-1.4,2.2-3.8,3.5-6.4,3.5h0Z"/>
    <path class="st1" d="M19.4,13.1c-.4,0-.7-.3-.7-.7,0-3.4-2.8-6.3-6.2-6.3-2.1,0-4.1,1.1-5.3,2.9-.2.3-.6.4-.9.2-.3-.2-.4-.6-.2-.9,1.4-2.2,3.8-3.5,6.4-3.5,4.2,0,7.6,3.4,7.6,7.6s-.3.7-.7.7h0Z"/>
    <path class="st1" d="M19.3,14.1c-.2,0-.3,0-.4-.2l-2.2-2c-.3-.2-.3-.7,0-.9.2-.3.7-.3.9,0l1.7,1.6,1.7-1.6c.3-.2.7-.2.9,0,.2.3.2.7,0,.9l-2.2,2c-.1.1-.3.2-.4.2h0Z"/>
  </g>
</svg>