<?xml version="1.0" encoding="UTF-8"?>
<svg id="_레이어_1" data-name="레이어 1" xmlns="http://www.w3.org/2000/svg" viewBox="0 0 25 25">
  <defs>
    <style>
      .cls-1 {
        fill: #fff;
        stroke: #fff;
        stroke-miterlimit: 10;
        stroke-width: .5px;
      }

      .cls-2 {
        fill: #2563eb;
      }
    </style>
  </defs>
  <rect class="cls-2" width="25" height="25" rx="5" ry="5"/>
  <g>
    <path class="cls-1" d="M5.77,19.69c-.12,0-.24-.05-.33-.14-.18-.18-.18-.47,0-.65l13.45-13.45c.18-.18.47-.18.65,0,.18.18.18.47,0,.65l-13.45,13.45c-.09.09-.21.14-.33.14Z"/>
    <path class="cls-1" d="M19.23,19.69c-.12,0-.24-.05-.33-.14L5.45,6.1c-.18-.18-.18-.47,0-.65.18-.18.47-.18.65,0l13.45,13.45c.18.18.18.47,0,.65-.09.09-.21.14-.33.14Z"/>
  </g>
</svg>