<?xml version="1.0" encoding="UTF-8"?>
<svg id="_레이어_1" data-name="레이어 1" xmlns="http://www.w3.org/2000/svg" viewBox="0 0 25 25">
  <defs>
    <style>
      .cls-1 {
        fill: #fff;
        stroke: #fff;
        stroke-miterlimit: 10;
        stroke-width: .5px;
      }

      .cls-2 {
        fill: #2563eb;
      }
    </style>
  </defs>
  <rect class="cls-2" width="25" height="25" rx="5" ry="5"/>
  <g>
    <path class="cls-1" d="M12.5,14.4c-1.68,0-3.04-1.37-3.04-3.04v-4.53c0-1.68,1.37-3.04,3.04-3.04s3.04,1.37,3.04,3.04v4.53c0,1.68-1.37,3.04-3.04,3.04ZM12.5,4.27c-1.41,0-2.56,1.15-2.56,2.56v4.53c0,1.41,1.15,2.56,2.56,2.56s2.56-1.15,2.56-2.56v-4.53c0-1.41-1.15-2.56-2.56-2.56Z"/>
    <path class="cls-1" d="M12.5,16.56c-2.8,0-5.07-2.28-5.07-5.07,0-.13.11-.24.24-.24s.24.11.24.24c0,2.53,2.06,4.59,4.59,4.59s4.59-2.06,4.59-4.59c0-.13.11-.24.24-.24s.24.11.24.24c0,2.8-2.28,5.07-5.07,5.07Z"/>
    <path class="cls-1" d="M12.5,21.22c-.13,0-.24-.11-.24-.24v-4.66c0-.13.11-.24.24-.24s.24.11.24.24v4.66c0,.13-.11.24-.24.24Z"/>
    <path class="cls-1" d="M15.79,21.22h-6.57c-.13,0-.24-.11-.24-.24s.11-.24.24-.24h6.57c.13,0,.24.11.24.24s-.11.24-.24.24Z"/>
    <path class="cls-1" d="M15.14,8.22h-5.44c-.13,0-.24-.11-.24-.24s.11-.24.24-.24h5.44c.13,0,.24.11.24.24s-.11.24-.24.24Z"/>
  </g>
</svg>