<?xml version="1.0" encoding="UTF-8"?>
<svg id="_레이어_1" data-name="레이어_1" xmlns="http://www.w3.org/2000/svg" version="1.1" viewBox="0 0 25 25">
  <!-- Generator: Adobe Illustrator 29.8.4, SVG Export Plug-In . SVG Version: 2.1.1 Build 6)  -->
  <defs>
    <style>
      .st0 {
        fill: none;
      }

      .st1 {
        fill: #2563eb;
      }
    </style>
  </defs>
  <rect class="st0" x="0" y="0" width="25" height="25" rx="5" ry="5"/>
  <g>
    <g>
      <path class="st1" d="M14.1,20.6c-.2,0-.3-.2-.3-.3v-4.2c0-.2.2-.3.3-.3h4.2c.2,0,.3.2.3.3s-.2.3-.3.3h-3.8v3.8c0,.2-.2.3-.3.3h0Z"/>
      <path class="st1" d="M14.1,21h-7.2c-.4,0-.7-.3-.7-.7V6c0-.4.3-.7.7-.7h11.4c.4,0,.7.3.7.7v10.1c0,.2,0,.4-.2.5l-4.2,4.2c-.1.1-.3.2-.5.2h0ZM7.6,19.6h6.2l3.8-3.8V6.7H7.6v12.9h0Z"/>
    </g>
    <path class="st1" d="M12.1,13.6c-.2,0-.3,0-.4-.2l-1.7-1.4c-.3-.2-.3-.7-.1-1,.2-.3.7-.3,1,0l1.2,1,2.7-3.4c.2-.3.7-.3,1-.1.3.2.3.7.1,1l-3.2,3.9c-.1.1-.3.2-.5.3,0,0,0,0,0,0h0Z"/>
  </g>
</svg>