<?xml version="1.0" encoding="UTF-8"?>
<svg id="_레이어_1" data-name="레이어 1" xmlns="http://www.w3.org/2000/svg" viewBox="0 0 25 25">
  <defs>
    <style>
      .cls-1 {
        fill: #fff;
        stroke: #fff;
        stroke-miterlimit: 10;
        stroke-width: .5px;
      }

      .cls-2 {
        fill: #2563eb;
      }
    </style>
  </defs>
  <rect class="cls-2" width="25" height="25" rx="5" ry="5"/>
  <g>
    <path class="cls-1" d="M20.81,21.16H4.19c-.13,0-.24-.11-.24-.24v-8.34c0-.13.11-.24.24-.24s.24.11.24.24v8.1h16.14v-8.1c0-.13.11-.24.24-.24s.24.11.24.24v8.34c0,.13-.11.24-.24.24Z"/>
    <g>
      <path class="cls-1" d="M12.5,17.13c-.13,0-.24-.11-.24-.24V4.08c0-.13.11-.24.24-.24s.24.11.24.24v12.81c0,.13-.11.24-.24.24Z"/>
      <path class="cls-1" d="M12.5,17.49h0c-.08,0-.15-.04-.19-.1l-1.76-2.47c-.08-.11-.05-.25.06-.33.11-.08.26-.05.33.06l1.57,2.2,1.57-2.2c.08-.11.22-.13.33-.06.11.08.13.22.06.33l-1.76,2.47c-.04.06-.12.1-.19.1Z"/>
    </g>
  </g>
</svg>