<?xml version="1.0" encoding="UTF-8"?>
<svg id="_레이어_1" data-name="레이어 1" xmlns="http://www.w3.org/2000/svg" viewBox="0 0 25 25">
  <defs>
    <style>
      .cls-1 {
        fill: #2563eb;
        stroke: #2563eb;
        stroke-miterlimit: 10;
      }

      .cls-2 {
        fill: #fff;
      }
    </style>
  </defs>
  <rect class="cls-2" width="25" height="25" rx="5" ry="5"/>
  <g>
    <path class="cls-1" d="M11.62,17.21c-3.28,0-5.95-2.67-5.95-5.95s2.67-5.95,5.95-5.95,5.95,2.67,5.95,5.95-2.67,5.95-5.95,5.95ZM11.62,5.74c-3.05,0-5.52,2.48-5.52,5.52s2.48,5.52,5.52,5.52,5.52-2.48,5.52-5.52-2.48-5.52-5.52-5.52Z"/>
    <path class="cls-1" d="M19.11,20.99c-.06,0-.12-.03-.16-.07l-4.14-4.86c-.08-.09-.07-.22.02-.3.09-.08.22-.07.3.02l4.14,4.86c.08.09.07.22-.02.3-.04.03-.09.05-.14.05Z"/>
  </g>
</svg>