<?xml version="1.0" encoding="UTF-8"?>
<svg id="_레이어_1" data-name="레이어 1" xmlns="http://www.w3.org/2000/svg" viewBox="0 0 25 25">
  <defs>
    <style>
      .cls-1 {
        fill: #fff;
        stroke: #fff;
        stroke-miterlimit: 10;
        stroke-width: .5px;
      }

      .cls-2 {
        fill: #2563eb;
      }
    </style>
  </defs>
  <rect class="cls-2" width="25" height="25" rx="5" ry="5"/>
  <g>
    <path class="cls-1" d="M18.19,17.38H7.07c-.18,0-.32-.14-.32-.32s.14-.32.32-.32h10.8V5.67c0-.18.14-.32.32-.32s.32.14.32.32v11.4c0,.18-.14.32-.32.32Z"/>
    <path class="cls-1" d="M9.99,19.65c-.06,0-.13-.02-.19-.06l-3.18-2.27c-.08-.06-.13-.16-.13-.26s.05-.2.13-.26l3.18-2.27c.14-.1.34-.07.45.07.1.14.07.34-.07.45l-2.82,2.01,2.82,2.01c.14.1.18.3.07.45-.06.09-.16.13-.26.13Z"/>
  </g>
</svg>