<?xml version="1.0" encoding="UTF-8"?>
<svg id="_레이어_1" data-name="레이어 1" xmlns="http://www.w3.org/2000/svg" viewBox="0 0 25 25">
  <defs>
    <style>
      .cls-1 {
        fill: none;
      }

      .cls-2 {
        fill: #2563eb;
      }
    </style>
  </defs>
  <rect class="cls-1" width="25" height="25" rx="5" ry="5"/>
  <path class="cls-2" d="M22.15,20.15c.32,0,.57-.26.57-.57v-1.51c0-3.03-1.76-5.69-4.47-6.89.54-.68.84-1.52.84-2.42,0-2.16-1.75-3.91-3.91-3.91-1.01,0-1.97.39-2.69,1.08-.7-.67-1.65-1.08-2.69-1.08-2.16,0-3.91,1.75-3.91,3.91,0,.89.3,1.74.84,2.42-2.71,1.2-4.47,3.86-4.47,6.89v1.51c0,.32.26.57.57.57h19.31ZM17.95,8.76c0,.86-.39,1.66-1.08,2.19-.17.13-.25.35-.21.56.04.21.19.38.4.45,2.71.82,4.53,3.28,4.53,6.11v.94h-4.23v-.94c0-3.03-1.76-5.69-4.47-6.89.54-.68.84-1.52.84-2.42,0-.7-.19-1.35-.51-1.92.52-.53,1.23-.84,1.98-.84,1.52,0,2.76,1.24,2.76,2.76ZM3.42,18.06c0-2.83,1.82-5.29,4.53-6.11.21-.06.36-.23.4-.45.04-.21-.04-.43-.21-.56-.69-.53-1.08-1.33-1.08-2.19,0-1.52,1.24-2.76,2.76-2.76s2.76,1.24,2.76,2.76c0,.86-.39,1.66-1.08,2.19-.17.13-.25.35-.21.56.04.21.19.38.4.45,2.71.82,4.53,3.28,4.53,6.11v.94H3.42v-.94Z"/>
  <rect class="cls-1" width="25" height="25" rx="5" ry="5"/>
</svg>